<svg width="77" height="51" viewBox="0 0 77 51" fill="none" xmlns="http://www.w3.org/2000/svg">
<path d="M11.4379 2.53838H5.70732V5.6373H11.1181V9.72H5.70732V12.9173H11.4379V17H0.886779V-1.54433H11.4379V2.53838ZM27.1123 -1.54433V12.9173H32.892V17H22.2918V-1.54433H27.1123ZM47.5806 -1.54433V17H42.76V-1.54433H47.5806ZM64.1454 7.11297L58.3657 -1.54433H64.3176L66.8262 3.25162L69.9252 -1.54433H75.877L69.753 7.11297L76.6641 17H70.786L67.0722 10.9497L62.7189 17H56.89L64.1454 7.11297ZM6.28856 31.4557V50H1.46802V31.4557H6.28856ZM23.5912 39.7441H24.5012C25.4522 39.7441 26.1819 39.5473 26.6902 39.1538C27.1985 38.7603 27.4526 38.1946 27.4526 37.4568C27.4526 36.7189 27.1985 36.1532 26.6902 35.7597C26.1819 35.3662 25.4522 35.1695 24.5012 35.1695H23.5912V39.7441ZM34.1915 50H28.1904L23.5912 42.8676V50H18.7707V31.4557H26.2721C27.305 31.4557 28.2068 31.6114 28.9775 31.923C29.7481 32.2181 30.3794 32.628 30.8712 33.1527C31.3795 33.6774 31.7566 34.2841 32.0026 34.9727C32.2649 35.6613 32.3961 36.3992 32.3961 37.1862C32.3961 38.5963 32.0518 39.7441 31.3631 40.6295C30.6909 41.4985 29.6907 42.0887 28.3626 42.4003L34.1915 50ZM49.6365 31.4557V50H44.816V31.4557H49.6365ZM72.3008 36.2024C71.7762 35.7761 71.2515 35.4646 70.7268 35.2678C70.2021 35.0547 69.6938 34.9481 69.2019 34.9481C68.5789 34.9481 68.0706 35.0957 67.6771 35.3908C67.2835 35.6859 67.0868 36.0713 67.0868 36.5468C67.0868 36.8747 67.1852 37.1452 67.3819 37.3584C67.5787 37.5715 67.8328 37.7601 68.1444 37.9241C68.4723 38.0716 68.833 38.2028 69.2265 38.3176C69.6364 38.4323 70.0381 38.5553 70.4317 38.6865C72.0057 39.2112 73.1535 39.9162 73.8749 40.8016C74.6127 41.6706 74.9817 42.8102 74.9817 44.2203C74.9817 45.1713 74.8177 46.0321 74.4898 46.8027C74.1782 47.5733 73.7109 48.2374 73.0879 48.7949C72.4812 49.3359 71.727 49.7541 70.8252 50.0492C69.9398 50.3607 68.9314 50.5165 67.8 50.5165C65.4553 50.5165 63.2828 49.8196 61.2825 48.4259L63.3484 44.54C64.0698 45.1795 64.7831 45.655 65.4881 45.9665C66.1932 46.278 66.89 46.4338 67.5787 46.4338C68.3657 46.4338 68.9478 46.2534 69.3249 45.8927C69.7184 45.532 69.9152 45.1221 69.9152 44.663C69.9152 44.3842 69.866 44.1465 69.7676 43.9497C69.6692 43.7366 69.5053 43.548 69.2757 43.3841C69.0462 43.2037 68.7428 43.0397 68.3657 42.8922C68.005 42.7446 67.5623 42.5806 67.0376 42.4003C66.4145 42.2035 65.7997 41.9904 65.193 41.7608C64.6027 41.5149 64.0698 41.1951 63.5944 40.8016C63.1353 40.4081 62.7581 39.9162 62.463 39.3259C62.1843 38.7193 62.0449 37.9568 62.0449 37.0386C62.0449 36.1204 62.1925 35.2924 62.4876 34.5546C62.7991 33.8004 63.2254 33.1609 63.7665 32.6362C64.324 32.0951 64.9962 31.677 65.7833 31.3819C66.5867 31.0868 67.4803 30.9392 68.4641 30.9392C69.3823 30.9392 70.3415 31.0704 71.3417 31.3327C72.3418 31.5786 73.301 31.9476 74.2192 32.4395L72.3008 36.2024Z" fill="white"/>
</svg>
